<svg width="24" height="24" viewBox="0 0 24 24" fill="none" xmlns="http://www.w3.org/2000/svg">
<path d="M6.72895 20H17.271C19.0961 20 20 19.0961 20 17.3058V6.69419C20 4.90386 19.0961 4 17.271 4H6.72895C4.91255 4 4 4.89517 4 6.69419V17.3058C4 19.1048 4.91255 20 6.72895 20ZM10.8137 16.4454C10.5182 16.4454 10.2835 16.315 10.0402 16.0196L7.53721 12.9256C7.40684 12.7605 7.32863 12.5519 7.32863 12.3607C7.32863 11.9522 7.6415 11.6393 8.03259 11.6393C8.28463 11.6393 8.49321 11.7349 8.70179 12.0043L10.7789 14.6898L14.8115 8.2151C14.9853 7.94568 15.2113 7.81532 15.4373 7.81532C15.8197 7.81532 16.1847 8.06735 16.1847 8.48452C16.1847 8.67572 16.0804 8.8843 15.9674 9.05812L11.5437 16.0196C11.3612 16.3064 11.1179 16.4454 10.8137 16.4454Z" fill="#007AFF"/>
</svg>
