<svg width="14" height="14" viewBox="0 0 14 14" fill="none" xmlns="http://www.w3.org/2000/svg">
<path d="M0.947783 10.5249C1.10912 11.9643 2.27905 13.1071 3.72577 13.1768C4.72572 13.225 5.7472 13.25 6.85584 13.25C7.96447 13.25 8.98595 13.225 9.9859 13.1768C11.4326 13.1071 12.6025 11.9643 12.7639 10.5249C12.8725 9.55562 12.9617 8.56184 12.9617 7.5495C12.9617 6.53716 12.8725 5.54339 12.7639 4.57408C12.6025 3.1347 11.4326 1.99186 9.9859 1.92218C8.98595 1.87402 7.96447 1.84899 6.85584 1.84899C5.7472 1.84899 4.72572 1.87402 3.72577 1.92218C2.27906 1.99186 1.10912 3.1347 0.947783 4.57408C0.839135 5.54338 0.749997 6.53716 0.749997 7.5495C0.749997 8.56184 0.839135 9.55562 0.947783 10.5249Z" fill="white"/>
<path d="M4.60929 0.749997L4.60929 3.28917" stroke="#4147D5" stroke-width="1.5" stroke-linecap="round"/>
<path d="M9.0956 0.749997L9.0956 3.28917" stroke="#4147D5" stroke-width="1.5" stroke-linecap="round"/>
<path d="M12.5241 6.60471L1.18766 6.60471L1.34679 2.56995L6.78902 2.17523L12.5241 2.56995L12.5241 6.60471Z" fill="#D7E0FF"/>
<path d="M12.7639 4.57408L12.0186 4.65762L12.7639 4.57408ZM6.85584 12.5C5.75882 12.5 4.74938 12.4753 3.76185 12.4277L3.68969 13.926C4.70206 13.9747 5.73558 14 6.85584 14V12.5ZM9.94982 12.4277C8.96229 12.4753 7.95285 12.5 6.85584 12.5V14C7.97609 14 9.00961 13.9747 10.022 13.926L9.94982 12.4277ZM13.5092 10.6085C13.6189 9.63008 13.7117 8.60373 13.7117 7.5495H12.2117C12.2117 8.51995 12.1262 9.48116 12.0186 10.4414L13.5092 10.6085ZM13.7117 7.5495C13.7117 6.49527 13.6189 5.46893 13.5092 4.49053L12.0186 4.65762C12.1262 5.61784 12.2117 6.57905 12.2117 7.5495H13.7117ZM6.85584 2.59899C7.95285 2.59899 8.96229 2.62375 9.94982 2.67131L10.022 1.17305C9.00961 1.12429 7.97609 1.09899 6.85584 1.09899V2.59899ZM3.76185 2.67131C4.74938 2.62375 5.75882 2.59899 6.85584 2.59899V1.09899C5.73558 1.09899 4.70206 1.12429 3.68969 1.17305L3.76185 2.67131ZM0.202454 4.49053C0.0927878 5.46893 0 6.49527 0 7.5495H1.49999C1.49999 6.57905 1.58548 5.61784 1.69311 4.65762L0.202454 4.49053ZM0 7.5495C0 8.60373 0.0927879 9.63008 0.202454 10.6085L1.69311 10.4414C1.58548 9.48116 1.49999 8.51995 1.49999 7.5495H0ZM13.5092 4.49053C13.3086 2.70102 11.852 1.26119 10.022 1.17305L9.94982 2.67131C11.0132 2.72252 11.8965 3.56838 12.0186 4.65762L13.5092 4.49053ZM10.022 13.926C11.852 13.8378 13.3086 12.398 13.5092 10.6085L12.0186 10.4414C11.8965 11.5306 11.0132 12.3765 9.94982 12.4277L10.022 13.926ZM3.68969 1.17305C1.85965 1.26119 0.403037 2.70102 0.202454 4.49053L1.69311 4.65762C1.8152 3.56838 2.69846 2.72252 3.76185 2.67131L3.68969 1.17305ZM3.76185 12.4277C2.69846 12.3765 1.8152 11.5306 1.69311 10.4414L0.202454 10.6085C0.403038 12.398 1.85965 13.8378 3.68969 13.926L3.76185 12.4277Z" fill="#4147D5"/>
<path d="M1.04217 6.22458H12.7296" stroke="#4147D5" stroke-width="1.5"/>
</svg>
