<svg width="8" height="9" viewBox="0 0 8 9" fill="none" xmlns="http://www.w3.org/2000/svg">
<path d="M1.77795 4H2.66684V4.88889H1.77795V4ZM1.77795 5.77778H2.66684V6.66667H1.77795V5.77778ZM3.55573 4H4.44462V4.88889H3.55573V4ZM3.55573 5.77778H4.44462V6.66667H3.55573V5.77778ZM5.33351 4H6.2224V4.88889H5.33351V4ZM5.33351 5.77778H6.2224V6.66667H5.33351V5.77778Z" fill="#2F80ED"/>
<path d="M0.888889 8.88889H7.11111C7.60133 8.88889 8 8.49022 8 8V1.77778C8 1.28756 7.60133 0.888889 7.11111 0.888889H6.22222V0H5.33333V0.888889H2.66667V0H1.77778V0.888889H0.888889C0.398667 0.888889 0 1.28756 0 1.77778V8C0 8.49022 0.398667 8.88889 0.888889 8.88889ZM7.11111 2.66667L7.11156 8H0.888889V2.66667H7.11111Z" fill="#2F80ED"/>
</svg>
