<svg width="335" height="81" viewBox="0 0 335 81" fill="none" xmlns="http://www.w3.org/2000/svg">
<path d="M0 40.1459C0 24.0937 0 16.0676 3.83091 10.2899C5.53043 7.72674 7.72674 5.53043 10.2899 3.83091C16.0676 0 24.0937 0 40.1459 0H113.818C117.299 0 119.04 0 120.628 0.222657C127.429 1.17591 133.448 5.11826 137.04 10.9717C137.879 12.3389 138.574 13.9345 139.965 17.1257L140.622 18.6317C144.503 27.5355 146.444 31.9874 148.2 34.2547C157.626 46.4191 176.107 46.0752 185.074 33.5687C186.745 31.2375 188.519 26.7165 192.066 17.6746C193.223 14.7242 193.802 13.249 194.498 11.9753C198.036 5.49678 204.469 1.11029 211.792 0.182421C213.232 0 214.817 0 217.986 0H294.854C310.906 0 318.932 0 324.71 3.83091C327.273 5.53043 329.47 7.72674 331.169 10.2899C335 16.0676 335 24.0937 335 40.1459C335 56.1981 335 64.2242 331.169 70.0019C329.47 72.5651 327.273 74.7614 324.71 76.461C318.932 80.2919 310.906 80.2919 294.854 80.2919H40.1459C24.0937 80.2919 16.0676 80.2919 10.2899 76.461C7.72674 74.7614 5.53043 72.5651 3.83091 70.0019C0 64.2242 0 56.1981 0 40.1459Z" fill="white" fill-opacity="0.8"/>
</svg>
