<svg width="23" height="21" viewBox="0 0 23 21" fill="none" xmlns="http://www.w3.org/2000/svg">
<path d="M20.6669 2.10294C19.4595 0.895141 17.8586 0.160811 16.1555 0.0334965C14.4524 -0.0938183 12.7602 0.394339 11.3866 1.40919C9.93957 0.332897 8.13848 -0.155147 6.34602 0.0433413C4.55356 0.241829 2.90287 1.1121 1.72638 2.47892C0.549884 3.84573 -0.0650345 5.60754 0.0054538 7.40958C0.0759421 9.21162 0.826601 10.92 2.10627 12.1908L10.5791 20.6636C10.6849 20.7702 10.8106 20.8548 10.9492 20.9126C11.0878 20.9703 11.2365 21 11.3866 21C11.5367 21 11.6854 20.9703 11.824 20.9126C11.9626 20.8548 12.0884 20.7702 12.1941 20.6636L20.6669 12.1908C21.3296 11.5285 21.8553 10.7422 22.2139 9.87678C22.5726 9.01132 22.7572 8.08368 22.7572 7.14685C22.7572 6.21002 22.5726 5.28238 22.2139 4.41692C21.8553 3.55147 21.3296 2.76516 20.6669 2.10294ZM19.0634 10.5872L11.3866 18.2525L3.70985 10.5872C3.03336 9.90786 2.57253 9.04391 2.38516 8.1037C2.1978 7.16349 2.29225 6.18889 2.65666 5.30215C3.02108 4.41541 3.63923 3.65603 4.43357 3.11926C5.22791 2.58249 6.16307 2.29223 7.12174 2.28491C8.40247 2.28805 9.62959 2.79935 10.5336 3.70653C10.6394 3.81313 10.7651 3.89774 10.9037 3.95547C11.0423 4.01321 11.191 4.04294 11.3411 4.04294C11.4912 4.04294 11.6399 4.01321 11.7785 3.95547C11.9171 3.89774 12.0429 3.81313 12.1486 3.70653C13.0793 2.90005 14.2816 2.47728 15.5122 2.52377C16.7428 2.57026 17.9098 3.08255 18.777 3.95695C19.6441 4.83135 20.1467 6.00255 20.183 7.2335C20.2193 8.46446 19.7865 9.66322 18.9724 10.5872H19.0634Z" fill="#4F4F4F"/>
</svg>
