<svg width="23" height="21" viewBox="0 0 23 21" fill="none" xmlns="http://www.w3.org/2000/svg">
<path d="M20.6669 2.10294C19.4595 0.89514 17.8586 0.160811 16.1555 0.0334965C14.4524 -0.0938181 12.7602 0.394338 11.3866 1.40919C9.93956 0.332896 8.13847 -0.155146 6.34601 0.0433412C4.55355 0.241829 2.90287 1.1121 1.72638 2.47891C0.549883 3.84572 -0.0650344 5.60754 0.00545379 7.40957C0.075942 9.21161 0.8266 10.92 2.10626 12.1907L10.5791 20.6636C10.6848 20.7702 10.8106 20.8548 10.9492 20.9125C11.0878 20.9703 11.2365 21 11.3866 21C11.5367 21 11.6854 20.9703 11.824 20.9125C11.9626 20.8548 12.0883 20.7702 12.1941 20.6636L20.6669 12.1907C21.3296 11.5285 21.8552 10.7422 22.2139 9.87676C22.5725 9.01131 22.7571 8.08367 22.7571 7.14684C22.7571 6.21002 22.5725 5.28237 22.2139 4.41692C21.8552 3.55146 21.3296 2.76516 20.6669 2.10294ZM19.0633 10.5872L11.3866 18.2525L3.70985 10.5872C3.03336 9.90785 2.57252 9.0439 2.38516 8.10369C2.1978 7.16348 2.29225 6.18888 2.65666 5.30214C3.02107 4.4154 3.63922 3.65602 4.43356 3.11925C5.2279 2.58248 6.16306 2.29223 7.12173 2.28491C8.40246 2.28804 9.62958 2.79935 10.5336 3.70652C10.6393 3.81312 10.7651 3.89773 10.9037 3.95547C11.0423 4.01321 11.191 4.04293 11.3411 4.04293C11.4912 4.04293 11.6399 4.01321 11.7785 3.95547C11.9171 3.89773 12.0428 3.81312 12.1486 3.70652C13.0793 2.90005 14.2816 2.47727 15.5122 2.52377C16.7428 2.57026 17.9098 3.08255 18.7769 3.95694C19.6441 4.83134 20.1467 6.00254 20.183 7.23349C20.2193 8.46444 19.7865 9.66321 18.9723 10.5872H19.0633Z" fill="#4F4F4F"/>
</svg>
